<svg width="320" height="77" viewBox="0 0 320 77" fill="none" xmlns="http://www.w3.org/2000/svg">
<path d="M76.5303 26.5303L100.47 50.4698" stroke="#BE123C" stroke-width="1.88" stroke-linecap="round" stroke-linejoin="round"/>
<path d="M100.47 26.5303L76.5304 50.4698" stroke="#BE123C" stroke-width="1.88" stroke-linecap="round" stroke-linejoin="round"/>
<path d="M140.412 44.5H136.469V32.8636H140.491C141.647 32.8636 142.639 33.0966 143.469 33.5625C144.302 34.0246 144.942 34.6894 145.389 35.5568C145.836 36.4242 146.06 37.4621 146.06 38.6705C146.06 39.8826 145.834 40.9242 145.384 41.7955C144.937 42.6667 144.291 43.3352 143.446 43.8011C142.605 44.267 141.594 44.5 140.412 44.5ZM138.577 42.6761H140.31C141.12 42.6761 141.796 42.5284 142.338 42.233C142.88 41.9337 143.287 41.4886 143.56 40.8977C143.832 40.303 143.969 39.5606 143.969 38.6705C143.969 37.7803 143.832 37.0417 143.56 36.4545C143.287 35.8636 142.884 35.4223 142.349 35.1307C141.819 34.8352 141.16 34.6875 140.372 34.6875H138.577V42.6761ZM147.972 44.5V35.7727H150.028V44.5H147.972ZM149.006 34.5341C148.68 34.5341 148.4 34.4261 148.165 34.2102C147.93 33.9905 147.813 33.7273 147.813 33.4205C147.813 33.1098 147.93 32.8466 148.165 32.6307C148.4 32.411 148.68 32.3011 149.006 32.3011C149.335 32.3011 149.616 32.411 149.847 32.6307C150.081 32.8466 150.199 33.1098 150.199 33.4205C150.199 33.7273 150.081 33.9905 149.847 34.2102C149.616 34.4261 149.335 34.5341 149.006 34.5341ZM154.655 44.6761C154.102 44.6761 153.604 44.5777 153.161 44.3807C152.721 44.1799 152.373 43.8845 152.115 43.4943C151.861 43.1042 151.734 42.6231 151.734 42.0511C151.734 41.5587 151.825 41.1515 152.007 40.8295C152.189 40.5076 152.437 40.25 152.751 40.0568C153.066 39.8636 153.42 39.7178 153.814 39.6193C154.212 39.517 154.623 39.4432 155.047 39.3977C155.558 39.3447 155.973 39.2973 156.291 39.2557C156.609 39.2102 156.84 39.142 156.984 39.0511C157.132 38.9564 157.206 38.8106 157.206 38.6136V38.5795C157.206 38.1515 157.079 37.8201 156.825 37.5852C156.572 37.3504 156.206 37.233 155.729 37.233C155.225 37.233 154.825 37.3428 154.53 37.5625C154.238 37.7822 154.041 38.0417 153.939 38.3409L152.018 38.0682C152.17 37.5379 152.42 37.0947 152.768 36.7386C153.117 36.3788 153.543 36.1098 154.047 35.9318C154.551 35.75 155.108 35.6591 155.717 35.6591C156.138 35.6591 156.556 35.7083 156.973 35.8068C157.39 35.9053 157.77 36.0682 158.115 36.2955C158.46 36.5189 158.736 36.8239 158.945 37.2102C159.157 37.5966 159.263 38.0795 159.263 38.6591V44.5H157.286V43.3011H157.217C157.092 43.5436 156.916 43.7708 156.689 43.983C156.465 44.1913 156.183 44.3598 155.842 44.4886C155.505 44.6136 155.109 44.6761 154.655 44.6761ZM155.189 43.1648C155.602 43.1648 155.96 43.0833 156.263 42.9205C156.566 42.7538 156.799 42.5341 156.962 42.2614C157.128 41.9886 157.212 41.6913 157.212 41.3693V40.3409C157.147 40.3939 157.037 40.4432 156.882 40.4886C156.731 40.5341 156.56 40.5739 156.371 40.608C156.181 40.642 155.994 40.6723 155.808 40.6989C155.623 40.7254 155.462 40.7481 155.325 40.767C155.018 40.8087 154.744 40.8769 154.501 40.9716C154.259 41.0663 154.068 41.1989 153.928 41.3693C153.787 41.536 153.717 41.7519 153.717 42.017C153.717 42.3958 153.856 42.6818 154.132 42.875C154.409 43.0682 154.761 43.1648 155.189 43.1648ZM165.3 35.7727H167.357V45C167.357 45.6288 167.237 46.1477 166.999 46.5568C166.76 46.9659 166.415 47.2708 165.965 47.4716C165.514 47.6723 164.966 47.7727 164.322 47.7727C164.247 47.7727 164.177 47.7708 164.112 47.767C164.048 47.767 163.978 47.7652 163.902 47.7614V46.0852C163.959 46.089 164.01 46.0909 164.055 46.0909C164.101 46.0947 164.148 46.0966 164.197 46.0966C164.591 46.0966 164.874 46 165.044 45.8068C165.215 45.6174 165.3 45.339 165.3 44.9716V35.7727ZM166.322 34.5341C165.993 34.5341 165.711 34.4261 165.476 34.2102C165.245 33.9905 165.129 33.7273 165.129 33.4205C165.129 33.1098 165.245 32.8466 165.476 32.6307C165.711 32.411 165.993 32.3011 166.322 32.3011C166.648 32.3011 166.927 32.411 167.158 32.6307C167.393 32.8466 167.51 33.1098 167.51 33.4205C167.51 33.7273 167.393 33.9905 167.158 34.2102C166.927 34.4261 166.648 34.5341 166.322 34.5341ZM171.983 44.6761C171.43 44.6761 170.932 44.5777 170.489 44.3807C170.049 44.1799 169.701 43.8845 169.443 43.4943C169.189 43.1042 169.063 42.6231 169.063 42.0511C169.063 41.5587 169.153 41.1515 169.335 40.8295C169.517 40.5076 169.765 40.25 170.08 40.0568C170.394 39.8636 170.748 39.7178 171.142 39.6193C171.54 39.517 171.951 39.4432 172.375 39.3977C172.886 39.3447 173.301 39.2973 173.619 39.2557C173.938 39.2102 174.169 39.142 174.313 39.0511C174.46 38.9564 174.534 38.8106 174.534 38.6136V38.5795C174.534 38.1515 174.407 37.8201 174.153 37.5852C173.9 37.3504 173.534 37.233 173.057 37.233C172.553 37.233 172.153 37.3428 171.858 37.5625C171.566 37.7822 171.369 38.0417 171.267 38.3409L169.347 38.0682C169.498 37.5379 169.748 37.0947 170.097 36.7386C170.445 36.3788 170.871 36.1098 171.375 35.9318C171.879 35.75 172.436 35.6591 173.045 35.6591C173.466 35.6591 173.884 35.7083 174.301 35.8068C174.718 35.9053 175.099 36.0682 175.443 36.2955C175.788 36.5189 176.064 36.8239 176.273 37.2102C176.485 37.5966 176.591 38.0795 176.591 38.6591V44.5H174.614V43.3011H174.545C174.42 43.5436 174.244 43.7708 174.017 43.983C173.794 44.1913 173.511 44.3598 173.17 44.4886C172.833 44.6136 172.438 44.6761 171.983 44.6761ZM172.517 43.1648C172.93 43.1648 173.288 43.0833 173.591 42.9205C173.894 42.7538 174.127 42.5341 174.29 42.2614C174.456 41.9886 174.54 41.6913 174.54 41.3693V40.3409C174.475 40.3939 174.366 40.4432 174.21 40.4886C174.059 40.5341 173.888 40.5739 173.699 40.608C173.509 40.642 173.322 40.6723 173.136 40.6989C172.951 40.7254 172.79 40.7481 172.653 40.767C172.347 40.8087 172.072 40.8769 171.83 40.9716C171.587 41.0663 171.396 41.1989 171.256 41.3693C171.116 41.536 171.045 41.7519 171.045 42.017C171.045 42.3958 171.184 42.6818 171.46 42.875C171.737 43.0682 172.089 43.1648 172.517 43.1648ZM172.347 34.625L173.619 32.0284H175.631L173.886 34.625H172.347ZM182.628 44.5V35.7727H184.622V37.2273H184.713C184.872 36.7235 185.145 36.3352 185.531 36.0625C185.921 35.786 186.366 35.6477 186.866 35.6477C186.98 35.6477 187.107 35.6534 187.247 35.6648C187.391 35.6723 187.51 35.6856 187.605 35.7045V37.5966C187.518 37.5663 187.38 37.5398 187.19 37.517C187.005 37.4905 186.825 37.4773 186.651 37.4773C186.276 37.4773 185.938 37.5587 185.639 37.7216C185.344 37.8807 185.111 38.1023 184.94 38.3864C184.77 38.6705 184.685 38.9981 184.685 39.3693V44.5H182.628ZM192.476 44.6705C191.601 44.6705 190.845 44.4886 190.209 44.125C189.576 43.7576 189.09 43.2386 188.749 42.5682C188.408 41.8939 188.237 41.1004 188.237 40.1875C188.237 39.2898 188.408 38.5019 188.749 37.8239C189.093 37.142 189.574 36.6117 190.192 36.233C190.809 35.8504 191.535 35.6591 192.368 35.6591C192.906 35.6591 193.413 35.7462 193.891 35.9205C194.372 36.0909 194.796 36.3561 195.163 36.7159C195.535 37.0758 195.826 37.5341 196.038 38.0909C196.25 38.6439 196.357 39.303 196.357 40.0682V40.6989H189.203V39.3125H194.385C194.381 38.9186 194.296 38.5682 194.129 38.2614C193.963 37.9508 193.73 37.7064 193.43 37.5284C193.135 37.3504 192.79 37.2614 192.396 37.2614C191.976 37.2614 191.607 37.3636 191.288 37.5682C190.97 37.7689 190.722 38.0341 190.544 38.3636C190.37 38.6894 190.281 39.0473 190.277 39.4375V40.6477C190.277 41.1553 190.37 41.5909 190.555 41.9545C190.741 42.3144 191 42.5909 191.334 42.7841C191.667 42.9735 192.057 43.0682 192.504 43.0682C192.804 43.0682 193.074 43.0265 193.317 42.9432C193.559 42.8561 193.769 42.7292 193.947 42.5625C194.125 42.3958 194.26 42.1894 194.351 41.9432L196.271 42.1591C196.15 42.6667 195.919 43.1098 195.578 43.4886C195.241 43.8636 194.809 44.1553 194.283 44.3636C193.756 44.5682 193.154 44.6705 192.476 44.6705ZM201.892 47.9545C201.153 47.9545 200.519 47.8542 199.989 47.6534C199.458 47.4564 199.032 47.1913 198.71 46.858C198.388 46.5246 198.165 46.1553 198.04 45.75L199.892 45.3011C199.975 45.4716 200.097 45.6402 200.256 45.8068C200.415 45.9773 200.629 46.1174 200.898 46.2273C201.17 46.3409 201.513 46.3977 201.926 46.3977C202.509 46.3977 202.992 46.2557 203.375 45.9716C203.758 45.6913 203.949 45.2292 203.949 44.5852V42.9318H203.847C203.741 43.1439 203.585 43.3617 203.381 43.5852C203.18 43.8087 202.913 43.9962 202.58 44.1477C202.25 44.2992 201.835 44.375 201.335 44.375C200.665 44.375 200.057 44.2178 199.511 43.9034C198.97 43.5852 198.538 43.1117 198.216 42.483C197.898 41.8504 197.739 41.0587 197.739 40.108C197.739 39.1496 197.898 38.3409 198.216 37.6818C198.538 37.0189 198.972 36.517 199.517 36.1761C200.063 35.8314 200.67 35.6591 201.341 35.6591C201.852 35.6591 202.273 35.7462 202.602 35.9205C202.936 36.0909 203.201 36.2973 203.398 36.5398C203.595 36.7784 203.744 37.0038 203.847 37.2159H203.96V35.7727H205.989V44.642C205.989 45.3883 205.811 46.0057 205.455 46.4943C205.099 46.983 204.612 47.3485 203.994 47.5909C203.377 47.8333 202.676 47.9545 201.892 47.9545ZM201.909 42.7614C202.345 42.7614 202.716 42.6553 203.023 42.4432C203.33 42.2311 203.563 41.9261 203.722 41.5284C203.881 41.1307 203.96 40.6534 203.96 40.0966C203.96 39.5473 203.881 39.0663 203.722 38.6534C203.566 38.2405 203.335 37.9205 203.028 37.6932C202.725 37.4621 202.352 37.3466 201.909 37.3466C201.451 37.3466 201.068 37.4659 200.761 37.7045C200.455 37.9432 200.224 38.2708 200.068 38.6875C199.913 39.1004 199.835 39.5701 199.835 40.0966C199.835 40.6307 199.913 41.0985 200.068 41.5C200.227 41.8977 200.46 42.2083 200.767 42.4318C201.078 42.6515 201.458 42.7614 201.909 42.7614ZM208.097 44.5V35.7727H210.153V44.5H208.097ZM209.131 34.5341C208.805 34.5341 208.525 34.4261 208.29 34.2102C208.055 33.9905 207.938 33.7273 207.938 33.4205C207.938 33.1098 208.055 32.8466 208.29 32.6307C208.525 32.411 208.805 32.3011 209.131 32.3011C209.46 32.3011 209.741 32.411 209.972 32.6307C210.206 32.8466 210.324 33.1098 210.324 33.4205C210.324 33.7273 210.206 33.9905 209.972 34.2102C209.741 34.4261 209.46 34.5341 209.131 34.5341ZM219.166 38.0795L217.291 38.2841C217.238 38.0947 217.145 37.9167 217.013 37.75C216.884 37.5833 216.71 37.4489 216.49 37.3466C216.27 37.2443 216.001 37.1932 215.683 37.1932C215.255 37.1932 214.895 37.286 214.604 37.4716C214.316 37.6572 214.174 37.8977 214.178 38.1932C214.174 38.447 214.267 38.6534 214.456 38.8125C214.649 38.9716 214.967 39.1023 215.411 39.2045L216.899 39.5227C217.725 39.7008 218.339 39.983 218.74 40.3693C219.145 40.7557 219.35 41.2614 219.354 41.8864C219.35 42.4356 219.189 42.9205 218.871 43.3409C218.556 43.7576 218.119 44.0833 217.558 44.3182C216.998 44.553 216.354 44.6705 215.626 44.6705C214.558 44.6705 213.698 44.447 213.047 44C212.395 43.5492 212.007 42.9223 211.882 42.1193L213.888 41.9261C213.979 42.3201 214.172 42.6174 214.467 42.8182C214.763 43.0189 215.147 43.1193 215.621 43.1193C216.109 43.1193 216.501 43.0189 216.797 42.8182C217.096 42.6174 217.246 42.3693 217.246 42.0739C217.246 41.8239 217.149 41.6174 216.956 41.4545C216.767 41.2917 216.471 41.1667 216.07 41.0795L214.581 40.767C213.744 40.5928 213.125 40.2992 212.723 39.8864C212.322 39.4697 212.123 38.9432 212.126 38.3068C212.123 37.7689 212.268 37.303 212.564 36.9091C212.863 36.5114 213.278 36.2045 213.808 35.9886C214.342 35.7689 214.958 35.6591 215.655 35.6591C216.678 35.6591 217.483 35.8769 218.07 36.3125C218.661 36.7481 219.026 37.3371 219.166 38.0795ZM225.408 35.7727V37.3636H220.391V35.7727H225.408ZM221.629 33.6818H223.686V41.875C223.686 42.1515 223.728 42.3636 223.811 42.5114C223.898 42.6553 224.012 42.7538 224.152 42.8068C224.292 42.8598 224.447 42.8864 224.618 42.8864C224.747 42.8864 224.864 42.8769 224.97 42.858C225.08 42.839 225.163 42.822 225.22 42.8068L225.567 44.4148C225.457 44.4527 225.3 44.4943 225.095 44.5398C224.894 44.5852 224.648 44.6117 224.357 44.6193C223.841 44.6345 223.377 44.5568 222.965 44.3864C222.552 44.2121 222.224 43.9432 221.982 43.5795C221.743 43.2159 221.625 42.7614 221.629 42.2159V33.6818ZM227.128 44.5V35.7727H229.122V37.2273H229.213C229.372 36.7235 229.645 36.3352 230.031 36.0625C230.421 35.786 230.866 35.6477 231.366 35.6477C231.48 35.6477 231.607 35.6534 231.747 35.6648C231.891 35.6723 232.01 35.6856 232.105 35.7045V37.5966C232.018 37.5663 231.88 37.5398 231.69 37.517C231.505 37.4905 231.325 37.4773 231.151 37.4773C230.776 37.4773 230.438 37.5587 230.139 37.7216C229.844 37.8807 229.611 38.1023 229.44 38.3864C229.27 38.6705 229.185 38.9981 229.185 39.3693V44.5H227.128ZM235.827 44.6761C235.274 44.6761 234.776 44.5777 234.332 44.3807C233.893 44.1799 233.545 43.8845 233.287 43.4943C233.033 43.1042 232.906 42.6231 232.906 42.0511C232.906 41.5587 232.997 41.1515 233.179 40.8295C233.361 40.5076 233.609 40.25 233.923 40.0568C234.238 39.8636 234.592 39.7178 234.986 39.6193C235.384 39.517 235.795 39.4432 236.219 39.3977C236.73 39.3447 237.145 39.2973 237.463 39.2557C237.781 39.2102 238.012 39.142 238.156 39.0511C238.304 38.9564 238.378 38.8106 238.378 38.6136V38.5795C238.378 38.1515 238.251 37.8201 237.997 37.5852C237.743 37.3504 237.378 37.233 236.901 37.233C236.397 37.233 235.997 37.3428 235.702 37.5625C235.41 37.7822 235.213 38.0417 235.111 38.3409L233.19 38.0682C233.342 37.5379 233.592 37.0947 233.94 36.7386C234.289 36.3788 234.715 36.1098 235.219 35.9318C235.723 35.75 236.279 35.6591 236.889 35.6591C237.31 35.6591 237.728 35.7083 238.145 35.8068C238.562 35.9053 238.942 36.0682 239.287 36.2955C239.632 36.5189 239.908 36.8239 240.116 37.2102C240.329 37.5966 240.435 38.0795 240.435 38.6591V44.5H238.457V43.3011H238.389C238.264 43.5436 238.088 43.7708 237.861 43.983C237.637 44.1913 237.355 44.3598 237.014 44.4886C236.677 44.6136 236.281 44.6761 235.827 44.6761ZM236.361 43.1648C236.774 43.1648 237.132 43.0833 237.435 42.9205C237.738 42.7538 237.971 42.5341 238.134 42.2614C238.3 41.9886 238.384 41.6913 238.384 41.3693V40.3409C238.319 40.3939 238.209 40.4432 238.054 40.4886C237.902 40.5341 237.732 40.5739 237.543 40.608C237.353 40.642 237.166 40.6723 236.98 40.6989C236.795 40.7254 236.634 40.7481 236.497 40.767C236.19 40.8087 235.916 40.8769 235.673 40.9716C235.431 41.0663 235.24 41.1989 235.099 41.3693C234.959 41.536 234.889 41.7519 234.889 42.017C234.889 42.3958 235.027 42.6818 235.304 42.875C235.581 43.0682 235.933 43.1648 236.361 43.1648ZM245.741 44.6534C245.056 44.6534 244.442 44.4773 243.901 44.125C243.359 43.7727 242.931 43.2614 242.616 42.5909C242.302 41.9205 242.145 41.1061 242.145 40.1477C242.145 39.178 242.304 38.3598 242.622 37.6932C242.944 37.0227 243.378 36.517 243.923 36.1761C244.469 35.8314 245.077 35.6591 245.747 35.6591C246.259 35.6591 246.679 35.7462 247.009 35.9205C247.338 36.0909 247.599 36.2973 247.793 36.5398C247.986 36.7784 248.135 37.0038 248.241 37.2159H248.327V32.8636H250.389V44.5H248.366V43.125H248.241C248.135 43.3371 247.982 43.5625 247.781 43.8011C247.581 44.036 247.315 44.2367 246.986 44.4034C246.656 44.5701 246.241 44.6534 245.741 44.6534ZM246.315 42.9659C246.751 42.9659 247.122 42.8485 247.429 42.6136C247.736 42.375 247.969 42.0436 248.128 41.6193C248.287 41.1951 248.366 40.7008 248.366 40.1364C248.366 39.572 248.287 39.0814 248.128 38.6648C247.973 38.2481 247.741 37.9242 247.435 37.6932C247.132 37.4621 246.759 37.3466 246.315 37.3466C245.857 37.3466 245.474 37.4659 245.168 37.7045C244.861 37.9432 244.63 38.2727 244.474 38.6932C244.319 39.1136 244.241 39.5947 244.241 40.1364C244.241 40.6818 244.319 41.1686 244.474 41.5966C244.634 42.0208 244.866 42.3561 245.173 42.6023C245.484 42.8447 245.865 42.9659 246.315 42.9659ZM256.388 44.6705C255.536 44.6705 254.797 44.483 254.172 44.108C253.547 43.733 253.062 43.2083 252.717 42.5341C252.376 41.8598 252.206 41.072 252.206 40.1705C252.206 39.2689 252.376 38.4792 252.717 37.8011C253.062 37.1231 253.547 36.5966 254.172 36.2216C254.797 35.8466 255.536 35.6591 256.388 35.6591C257.24 35.6591 257.979 35.8466 258.604 36.2216C259.229 36.5966 259.712 37.1231 260.053 37.8011C260.397 38.4792 260.57 39.2689 260.57 40.1705C260.57 41.072 260.397 41.8598 260.053 42.5341C259.712 43.2083 259.229 43.733 258.604 44.108C257.979 44.483 257.24 44.6705 256.388 44.6705ZM256.399 43.0227C256.861 43.0227 257.248 42.8958 257.558 42.642C257.869 42.3845 258.1 42.0398 258.251 41.608C258.407 41.1761 258.484 40.6951 258.484 40.1648C258.484 39.6307 258.407 39.1477 258.251 38.7159C258.1 38.2803 257.869 37.9337 257.558 37.6761C257.248 37.4186 256.861 37.2898 256.399 37.2898C255.926 37.2898 255.532 37.4186 255.217 37.6761C254.907 37.9337 254.674 38.2803 254.518 38.7159C254.367 39.1477 254.291 39.6307 254.291 40.1648C254.291 40.6951 254.367 41.1761 254.518 41.608C254.674 42.0398 254.907 42.3845 255.217 42.642C255.532 42.8958 255.926 43.0227 256.399 43.0227ZM264.832 32.8636L264.645 41.0795H262.815L262.634 32.8636H264.832ZM263.73 44.625C263.385 44.625 263.09 44.5038 262.844 44.2614C262.601 44.0189 262.48 43.7235 262.48 43.375C262.48 43.0341 262.601 42.7424 262.844 42.5C263.09 42.2576 263.385 42.1364 263.73 42.1364C264.067 42.1364 264.359 42.2576 264.605 42.5C264.855 42.7424 264.98 43.0341 264.98 43.375C264.98 43.6061 264.921 43.8163 264.804 44.0057C264.69 44.1951 264.539 44.3466 264.349 44.4602C264.164 44.5701 263.957 44.625 263.73 44.625Z" fill="white"/>
<rect x="0.5" y="0.5" width="319" height="76" rx="7.5" stroke="#BE123C"/>
</svg>
