<svg width="167" height="74" viewBox="0 0 167 74" fill="none" xmlns="http://www.w3.org/2000/svg">
<path d="M26.9773 46.0312V60.963H18.642V26.054H26.7045V39.588H26.9943C27.5852 37.9744 28.5511 36.713 29.892 35.804C31.2443 34.8949 32.8977 34.4403 34.8523 34.4403C36.6932 34.4403 38.2955 34.8494 39.6591 35.6676C41.0227 36.4744 42.0795 37.6165 42.8295 39.0937C43.5909 40.571 43.9659 42.2983 43.9545 44.2755V60.963H35.6193V45.9119C35.6307 44.4574 35.267 43.321 34.5284 42.5028C33.7898 41.6846 32.75 41.2755 31.4091 41.2755C30.5341 41.2755 29.7614 41.4687 29.0909 41.8551C28.4318 42.2301 27.9148 42.7699 27.5398 43.4744C27.1761 44.179 26.9886 45.0312 26.9773 46.0312ZM56.5384 61.4062C54.8679 61.4062 53.3849 61.1278 52.0895 60.571C50.8054 60.0028 49.7884 59.1505 49.0384 58.0142C48.2997 56.8665 47.9304 55.429 47.9304 53.7017C47.9304 52.2471 48.1861 51.0199 48.6974 50.0199C49.2088 49.0199 49.9134 48.2074 50.8111 47.5824C51.7088 46.9574 52.7429 46.4858 53.9134 46.1676C55.0838 45.838 56.3338 45.6165 57.6634 45.5028C59.152 45.3665 60.3509 45.2244 61.2599 45.0767C62.169 44.9176 62.8281 44.696 63.2372 44.4119C63.6577 44.1165 63.8679 43.7017 63.8679 43.1676V43.0824C63.8679 42.2074 63.5668 41.5312 62.9645 41.054C62.3622 40.5767 61.5497 40.338 60.527 40.338C59.4247 40.338 58.5384 40.5767 57.8679 41.054C57.1974 41.5312 56.7713 42.1903 56.5895 43.0312L48.902 42.7585C49.1293 41.1676 49.7145 39.7471 50.6577 38.4971C51.6122 37.2358 52.919 36.2471 54.5781 35.5312C56.2486 34.804 58.2543 34.4403 60.5952 34.4403C62.2656 34.4403 63.8054 34.6392 65.2145 35.0369C66.6236 35.4233 67.8509 35.9915 68.8963 36.7415C69.9418 37.4801 70.7486 38.3892 71.3168 39.4687C71.8963 40.5483 72.1861 41.7812 72.1861 43.1676V60.963H64.3452V57.3153H64.1406C63.6747 58.2017 63.0781 58.9517 62.3509 59.5653C61.6349 60.179 60.7884 60.6392 59.8111 60.946C58.8452 61.2528 57.7543 61.4062 56.5384 61.4062ZM59.1122 55.9517C60.0099 55.9517 60.8168 55.7699 61.5327 55.4062C62.2599 55.0426 62.8395 54.5426 63.2713 53.9062C63.7031 53.2585 63.919 52.5085 63.919 51.6562V49.1676C63.6804 49.2926 63.3906 49.4062 63.0497 49.5085C62.7202 49.6108 62.3565 49.7074 61.9588 49.7983C61.5611 49.8892 61.152 49.9687 60.7315 50.0369C60.3111 50.1051 59.9077 50.1676 59.5213 50.2244C58.7372 50.3494 58.0668 50.5426 57.5099 50.804C56.9645 51.0653 56.544 51.4062 56.2486 51.8267C55.9645 52.2358 55.8224 52.7244 55.8224 53.2926C55.8224 54.1562 56.1293 54.8153 56.7429 55.2699C57.3679 55.7244 58.1577 55.9517 59.1122 55.9517ZM77.2827 60.963V26.054H85.6179V39.2642H85.7884C86.1293 38.4687 86.6122 37.7017 87.2372 36.963C87.8736 36.2244 88.6804 35.6221 89.6577 35.1562C90.6463 34.679 91.8281 34.4403 93.2031 34.4403C95.0213 34.4403 96.7202 34.9176 98.2997 35.8721C99.8906 36.8267 101.175 38.2983 102.152 40.2869C103.129 42.2755 103.618 44.8096 103.618 47.8892C103.618 50.8551 103.146 53.338 102.203 55.338C101.271 57.338 100.01 58.838 98.419 59.838C96.8395 60.838 95.0838 61.338 93.152 61.338C91.8338 61.338 90.6918 61.1221 89.7259 60.6903C88.7599 60.2585 87.9474 59.6903 87.2884 58.9858C86.6406 58.2812 86.1406 57.5255 85.7884 56.7187H85.5327V60.963H77.2827ZM85.4474 47.8721C85.4474 49.2812 85.6349 50.5085 86.0099 51.554C86.3963 52.5994 86.9474 53.4119 87.6634 53.9915C88.3906 54.5596 89.2599 54.8437 90.2713 54.8437C91.294 54.8437 92.1634 54.5596 92.8793 53.9915C93.5952 53.4119 94.1349 52.5994 94.4986 51.554C94.8736 50.5085 95.0611 49.2812 95.0611 47.8721C95.0611 46.463 94.8736 45.2415 94.4986 44.2074C94.1349 43.1733 93.5952 42.3721 92.8793 41.804C92.1747 41.2358 91.3054 40.9517 90.2713 40.9517C89.2486 40.9517 88.3793 41.2301 87.6634 41.7869C86.9474 42.3437 86.3963 43.1392 86.0099 44.1733C85.6349 45.2074 85.4474 46.4403 85.4474 47.8721Z" fill="white"/>
<rect x="0.5" y="0.536957" width="15" height="15" rx="3.5" fill="#18181B" stroke="#27272A"/>
<rect x="20.5" y="0.536957" width="15" height="15" rx="3.5" fill="#4C1D95" stroke="#6D28D9"/>
<rect x="40.5" y="0.536957" width="15" height="15" rx="3.5" fill="#5B21B6" stroke="#7C3AED"/>
<rect x="60.5" y="0.536957" width="15" height="15" rx="3.5" fill="#6D28D9" stroke="#8B5CF6"/>
<rect x="80.5" y="0.536957" width="15" height="15" rx="3.5" fill="#7C3AED" stroke="#A78BFA"/>
<rect x="100.5" y="0.536957" width="15" height="15" rx="3.5" fill="#8B5CF6" stroke="#C4B5FD"/>
</svg>
