<svg width="435" height="367" viewBox="0 0 435 367" fill="none" xmlns="http://www.w3.org/2000/svg">
<rect x="7.5" y="0.5" width="59" height="59" rx="3.5" fill="#18181B" stroke="#27272A"/>
<rect x="71.5" y="0.5" width="59" height="59" rx="3.5" fill="#4C1D95" stroke="#6D28D9"/>
<rect x="135.5" y="0.5" width="59" height="59" rx="3.5" fill="#5B21B6" stroke="#7C3AED"/>
<rect x="199.5" y="0.5" width="59" height="59" rx="3.5" fill="#6D28D9" stroke="#8B5CF6"/>
<rect x="263.5" y="0.5" width="59" height="59" rx="3.5" fill="#7C3AED" stroke="#A78BFA"/>
<rect x="327.5" y="0.5" width="59" height="59" rx="3.5" fill="#8B5CF6" stroke="#C4B5FD"/>
<path d="M43.0298 287.786V364H0.485441V185.818H41.6378V254.898H43.1168C46.1329 246.662 51.0631 240.224 57.9073 235.584C64.8095 230.944 73.2488 228.624 83.2251 228.624C92.6214 228.624 100.8 230.712 107.76 234.888C114.72 239.006 120.114 244.835 123.942 252.375C127.829 259.916 129.743 268.732 129.685 278.824V364H87.1403V287.176C87.1983 279.752 85.3422 273.952 81.5721 269.776C77.802 265.6 72.4948 263.512 65.6506 263.512C61.1844 263.512 57.2403 264.498 53.8182 266.47C50.4541 268.384 47.815 271.139 45.9009 274.735C44.0449 278.331 43.0878 282.681 43.0298 287.786ZM193.915 366.262C185.388 366.262 177.819 364.841 171.207 361.999C164.653 359.099 159.461 354.749 155.633 348.949C151.863 343.09 149.978 335.753 149.978 326.937C149.978 319.513 151.283 313.248 153.893 308.144C156.503 303.04 160.099 298.893 164.682 295.703C169.264 292.513 174.542 290.106 180.516 288.482C186.49 286.799 192.87 285.668 199.657 285.088C207.255 284.392 213.374 283.667 218.014 282.913C222.654 282.101 226.019 280.97 228.107 279.52C230.253 278.012 231.326 275.895 231.326 273.169V272.734C231.326 268.268 229.789 264.817 226.715 262.381C223.64 259.945 219.493 258.727 214.273 258.727C208.647 258.727 204.123 259.945 200.701 262.381C197.279 264.817 195.104 268.181 194.176 272.473L154.937 271.081C156.097 262.961 159.084 255.71 163.899 249.33C168.771 242.892 175.441 237.846 183.909 234.192C192.435 230.48 202.673 228.624 214.621 228.624C223.147 228.624 231.007 229.639 238.199 231.669C245.391 233.641 251.655 236.541 256.992 240.369C262.328 244.139 266.446 248.779 269.346 254.289C272.304 259.8 273.783 266.093 273.783 273.169V364H233.762V345.381H232.718C230.34 349.906 227.295 353.734 223.582 356.866C219.928 359.998 215.607 362.347 210.619 363.913C205.689 365.479 200.121 366.262 193.915 366.262ZM207.052 338.421C211.634 338.421 215.752 337.493 219.406 335.637C223.118 333.781 226.077 331.229 228.281 327.981C230.485 324.675 231.587 320.847 231.587 316.496V303.794C230.369 304.432 228.89 305.012 227.15 305.534C225.468 306.056 223.611 306.549 221.581 307.013C219.551 307.477 217.463 307.883 215.317 308.231C213.171 308.579 211.112 308.898 209.14 309.188C205.138 309.826 201.716 310.812 198.874 312.146C196.09 313.48 193.944 315.22 192.435 317.366C190.985 319.455 190.26 321.949 190.26 324.849C190.26 329.257 191.826 332.621 194.959 334.941C198.149 337.261 202.18 338.421 207.052 338.421ZM299.797 364V185.818H342.341V253.245H343.211C344.951 249.185 347.417 245.27 350.607 241.5C353.855 237.73 357.973 234.656 362.961 232.278C368.007 229.842 374.039 228.624 381.058 228.624C390.338 228.624 399.009 231.06 407.071 235.932C415.192 240.804 421.746 248.315 426.734 258.466C431.722 268.616 434.216 281.55 434.216 297.269C434.216 312.407 431.809 325.081 426.995 335.289C422.239 345.497 415.801 353.154 407.68 358.258C399.618 363.362 390.657 365.914 380.797 365.914C374.068 365.914 368.239 364.812 363.309 362.608C358.379 360.404 354.232 357.504 350.868 353.908C347.562 350.312 345.009 346.454 343.211 342.336H341.906V364H299.797ZM341.471 297.182C341.471 304.374 342.428 310.638 344.342 315.974C346.314 321.311 349.128 325.458 352.782 328.416C356.494 331.316 360.931 332.766 366.093 332.766C371.313 332.766 375.75 331.316 379.405 328.416C383.059 325.458 385.814 321.311 387.67 315.974C389.584 310.638 390.541 304.374 390.541 297.182C390.541 289.99 389.584 283.754 387.67 278.476C385.814 273.198 383.059 269.109 379.405 266.209C375.808 263.309 371.371 261.859 366.093 261.859C360.873 261.859 356.436 263.28 352.782 266.122C349.128 268.964 346.314 273.024 344.342 278.302C342.428 283.58 341.471 289.874 341.471 297.182Z" fill="white"/>
</svg>
